<?xml version="1.0" encoding="UTF-8"?>
<svg xmlns="http://www.w3.org/2000/svg" width="215" height="51" viewBox="0 0 215 51" fill="none">
  <path d="M132.327 45.4199L136.287 36.4805H137.688L132.427 48.2598C131.547 50.3198 130.427 50.9805 128.927 50.9805C127.947 50.9804 127.007 50.6594 126.367 50.0195L127.027 48.96C127.547 49.4799 128.187 49.7598 128.947 49.7598C129.887 49.7597 130.527 49.3199 131.127 48L131.587 46.9805L126.887 36.4805H128.367L132.327 45.4199Z" fill="#184F78"></path>
  <path fill-rule="evenodd" clip-rule="evenodd" d="M96.4131 36.4004C99.3731 36.4004 101.513 38.5802 101.513 41.7402C101.513 41.8601 101.493 42.0199 101.493 42.1797H92.6934C92.8534 44.3796 94.5331 45.8398 96.833 45.8398C98.1129 45.8398 99.2527 45.3799 100.053 44.46L100.854 45.3799C99.9135 46.4999 98.453 47.0996 96.793 47.0996C93.5131 47.0995 91.2735 44.8601 91.2734 41.7402C91.2734 38.6202 93.4531 36.4004 96.4131 36.4004ZM96.4131 37.6201C94.3731 37.6201 92.8734 39.0601 92.6934 41.1201H100.153C99.9733 39.0601 98.4731 37.6201 96.4131 37.6201Z" fill="#184F78"></path>
  <path fill-rule="evenodd" clip-rule="evenodd" d="M107.69 36.4004C110.41 36.4004 111.95 37.7605 111.95 40.4805V47H110.591V45.3604C109.951 46.4403 108.711 47.0995 106.971 47.0996C104.591 47.0996 103.131 45.86 103.131 44.04C103.131 42.42 104.17 41.0596 107.19 41.0596H110.53V40.4199C110.53 38.6201 109.511 37.6398 107.551 37.6396C106.191 37.6396 104.911 38.12 104.051 38.8799L103.41 37.8203C104.47 36.9203 106.03 36.4004 107.69 36.4004ZM107.23 42.1201C105.19 42.1201 104.53 42.92 104.53 44C104.53 45.22 105.51 45.9805 107.19 45.9805C108.79 45.9805 109.97 45.2198 110.53 43.8398V42.1201H107.23Z" fill="#184F78"></path>
  <path d="M122.678 36.4795H125.878V37.6797H122.678V43.96C122.678 45.1998 123.317 45.8797 124.497 45.8799C125.077 45.8799 125.658 45.6998 126.058 45.3398L126.558 46.3604C125.998 46.8602 125.158 47.0995 124.338 47.0996C122.358 47.0996 121.258 45.98 121.258 44.04V37.6797H119.378V36.4795H121.258V34.1797H122.678V36.4795Z" fill="#184F78"></path>
  <path fill-rule="evenodd" clip-rule="evenodd" d="M83.5195 33C87.0795 33 89.2401 34.7999 89.2402 37.7998C89.2402 39.9998 88.08 41.5402 86.04 42.2002L89.46 47H87.8398L84.6396 42.5C84.2798 42.54 83.9194 42.5596 83.5195 42.5596H79.7598V47H78.2803V33H83.5195ZM79.7598 41.2998H83.4805C86.2802 41.2997 87.7598 39.9997 87.7598 37.7998C87.7597 35.5601 86.2801 34.2804 83.4805 34.2803H79.7598V41.2998Z" fill="#184F78"></path>
  <path d="M117.127 47H115.707V32.1602H117.127V47Z" fill="#184F78"></path>
  <path d="M96.5332 23.7041C96.5331 25.3063 95.9277 26.3875 94.7178 26.9482C93.5284 27.529 92.2059 27.8593 90.75 27.9395C90.422 27.9595 90.0937 27.98 89.7656 28H86.9355V23.2236H87.9502C88.5653 23.2236 89.0371 23.1333 89.3652 22.9531C89.6934 22.7729 89.8574 22.3216 89.8574 21.6006V6.42871H96.5332V23.7041Z" fill="#184F78"></path>
  <path d="M76.999 16.1025C76.999 16.7433 77.214 17.2245 77.6445 17.5449C78.0546 17.8653 78.506 18.0356 78.998 18.0557H79.1826C79.6748 18.0356 80.1367 17.8654 80.5674 17.5449C80.9775 17.2245 81.1826 16.7536 81.1826 16.1328V6.66992H87.7354V22.502H81.8896V20.3691C81.4385 21.2703 80.8134 21.9412 80.0137 22.3818C79.1933 22.8425 78.3418 23.1132 77.46 23.1934C77.3575 23.2133 77.2548 23.2236 77.1523 23.2236H76.5684C75.0919 23.1636 73.7382 22.6526 72.5078 21.6914C71.2978 20.73 70.6924 19.4275 70.6924 17.7852V6.66992H76.999V16.1025Z" fill="#184F78"></path>
  <path fill-rule="evenodd" clip-rule="evenodd" d="M167.749 5.97852C167.954 5.97854 168.159 5.99903 168.364 6.03906C170.271 6.23941 172.025 6.98008 173.624 8.26172C175.224 9.54352 176.085 11.5765 176.208 14.3604V14.8115C176.208 17.6153 175.367 19.6782 173.686 21C172.004 22.3217 170.148 23.0428 168.118 23.1631C167.995 23.2031 167.861 23.2236 167.718 23.2236H166.765C164.632 23.1035 162.673 22.3721 160.889 21.0303C159.104 19.7084 158.212 17.4848 158.212 14.3604C158.212 11.957 158.838 10.1343 160.089 8.89258C161.34 7.651 162.724 6.80979 164.241 6.36914C164.733 6.22894 165.216 6.12845 165.688 6.06836C166.18 5.98825 166.651 5.94824 167.103 5.94824V5.91797C167.328 5.938 167.544 5.95849 167.749 5.97852ZM167.103 10.5146C166.344 10.5147 165.759 10.8152 165.349 11.416C164.938 12.0169 164.672 12.6681 164.549 13.3691C164.528 13.5293 164.508 13.6895 164.487 13.8496C164.467 14.0097 164.457 14.17 164.457 14.3301C164.457 14.5504 164.478 14.7811 164.519 15.0215C164.539 15.2618 164.58 15.5121 164.642 15.7725C164.785 16.4934 165.072 17.1643 165.503 17.7852C165.954 18.406 166.56 18.7168 167.318 18.7168C168.097 18.7167 168.682 18.4059 169.071 17.7852C169.44 17.1643 169.677 16.4934 169.779 15.7725C169.82 15.5121 169.851 15.2618 169.871 15.0215C169.892 14.7811 169.902 14.5504 169.902 14.3301C169.902 14.17 169.892 14.0097 169.871 13.8496C169.851 13.6895 169.83 13.5293 169.81 13.3691C169.707 12.6681 169.44 12.0169 169.01 11.416C168.6 10.8153 167.964 10.5146 167.103 10.5146Z" fill="#184F78"></path>
  <path fill-rule="evenodd" clip-rule="evenodd" d="M147.66 5.94824C150.347 5.94824 152.367 6.49913 153.721 7.60059C155.095 8.70209 156.059 9.89404 156.612 11.1758C156.899 11.9369 157.104 12.6681 157.228 13.3691C157.33 14.0501 157.382 14.6409 157.382 15.1416V15.833H145.169C145.231 16.7941 145.518 17.5247 146.03 18.0254C146.543 18.526 147.107 18.8368 147.722 18.957C147.824 18.977 147.927 18.9873 148.029 18.9873C148.132 19.0073 148.225 19.0176 148.307 19.0176C148.84 19.0176 149.332 18.8771 149.783 18.5967C150.214 18.3363 150.48 17.9856 150.583 17.5449V17.5146H156.92C156.674 18.9365 155.844 20.2086 154.429 21.3301C153.014 22.4317 150.839 22.9824 147.906 22.9824H147.599C144.625 22.9823 142.369 22.1115 140.831 20.3691C139.293 18.6267 138.514 16.7036 138.493 14.6006V14.3008C138.534 12.2178 139.324 10.305 140.862 8.5625C142.4 6.82009 144.666 5.94833 147.66 5.94824ZM147.906 10.0947C147.189 10.0948 146.584 10.2446 146.092 10.5449C145.6 10.8453 145.21 11.4763 144.923 12.4375H151.045C150.819 11.4965 150.429 10.8757 149.876 10.5752C149.302 10.2547 148.645 10.0947 147.906 10.0947Z" fill="#184F78"></path>
  <path fill-rule="evenodd" clip-rule="evenodd" d="M107.361 5.97852C110.745 5.97852 112.848 6.53953 113.668 7.66113C114.468 8.80272 114.929 10.0746 115.052 11.4766V11.5967C115.072 11.6367 115.083 11.687 115.083 11.7471V20.0986C115.083 20.4992 115.145 20.8602 115.268 21.1807C115.411 21.521 115.657 21.8115 116.006 22.0518V22.502H109.238L108.992 20.8193C108.603 21.4002 107.956 21.8617 107.054 22.2021C106.151 22.5626 105.208 22.7924 104.224 22.8926H103.763C103.619 22.9126 103.465 22.9229 103.301 22.9229H102.993C102.029 22.8628 101.106 22.6627 100.225 22.3223C99.3633 21.9818 98.707 21.4105 98.2559 20.6094C98.2148 20.5293 98.1738 20.439 98.1328 20.3389C98.0918 20.2388 98.0302 20.1186 97.9482 19.9785C97.8662 19.6981 97.7842 19.3874 97.7021 19.0469C97.5997 18.6865 97.5479 18.3262 97.5479 17.9658C97.5479 17.7055 97.5791 17.4449 97.6406 17.1846C97.6816 16.9242 97.7432 16.6534 97.8252 16.373C97.9072 16.1328 98.0303 15.8721 98.1943 15.5918C98.3583 15.3316 98.5323 15.0811 98.7168 14.8408C99.209 14.28 99.876 13.8595 100.717 13.5791C101.537 13.3187 102.389 13.1187 103.271 12.9785C103.598 12.8985 103.937 12.8379 104.285 12.7979C104.613 12.7578 104.932 12.7085 105.239 12.6484C105.711 12.6084 106.151 12.5479 106.562 12.4678C106.972 12.3877 107.32 12.3076 107.607 12.2275C107.833 12.1474 108.028 12.0274 108.192 11.8672C108.356 11.7071 108.459 11.5468 108.5 11.3867V11.2656C108.52 11.2455 108.53 11.2053 108.53 11.1455C108.53 11.1056 108.52 11.0653 108.5 11.0254V10.9658C108.439 10.7256 108.274 10.5254 108.008 10.3652C107.741 10.185 107.372 10.0948 106.9 10.0947C106.326 10.0947 105.823 10.185 105.393 10.3652C104.962 10.5255 104.686 10.9061 104.562 11.5068L98.2559 11.4766C98.6045 9.71404 99.3125 8.352 100.379 7.39062C101.425 6.44943 103.752 5.97854 107.361 5.97852ZM108.53 15.5918C108.284 15.752 108.028 15.8823 107.762 15.9824C107.475 16.0625 107.187 16.1435 106.9 16.2236C106.818 16.2236 106.736 16.233 106.654 16.2529C106.572 16.2729 106.49 16.2935 106.408 16.3135C105.814 16.4336 105.28 16.604 104.809 16.8242C104.337 17.0245 104.101 17.4247 104.101 18.0254C104.101 18.446 104.285 18.767 104.654 18.9873C105.023 19.2076 105.444 19.3174 105.916 19.3174H106.162C106.244 19.2974 106.326 19.2871 106.408 19.2871C106.634 19.2471 106.849 19.1772 107.054 19.0771C107.279 18.9771 107.464 18.8672 107.607 18.7471C107.792 18.5469 107.956 18.3364 108.1 18.1162C108.223 17.896 108.325 17.6753 108.407 17.4551C108.469 17.2748 108.521 17.0841 108.562 16.8838C108.582 16.6838 108.592 16.5038 108.592 16.3438V16.2236C108.592 16.1635 108.582 16.1226 108.562 16.1025V15.8027C108.541 15.7426 108.53 15.6822 108.53 15.6221V15.5918Z" fill="#184F78"></path>
  <path fill-rule="evenodd" clip-rule="evenodd" d="M58.2646 7.69141C58.7158 7.13061 59.3515 6.6896 60.1719 6.36914C60.9717 6.02869 61.8125 5.8584 62.6943 5.8584C62.8584 5.8584 63.0225 5.86865 63.1865 5.88867C63.3505 5.9087 63.5147 5.92822 63.6787 5.94824C65.1348 6.14854 66.4677 6.9003 67.6777 8.20215C68.8876 9.50402 69.4932 11.5667 69.4932 14.3906C69.4932 17.2546 68.8368 19.3378 67.5244 20.6396C66.2324 21.9615 64.8165 22.7021 63.2783 22.8623H62.9092C62.7863 22.8823 62.6737 22.8926 62.5713 22.8926C61.5869 22.8926 60.6533 22.6926 59.7715 22.292C58.8897 21.8914 58.2129 21.3406 57.7412 20.6396V22.502H51.958V0.240234H58.2646V7.69141ZM60.8174 10.9961C59.8947 10.9962 59.1875 11.3563 58.6953 12.0771C58.2031 12.7982 57.957 13.6299 57.957 14.5713C57.9571 15.5525 58.2032 16.4134 58.6953 17.1543C59.1875 17.8752 59.8947 18.2362 60.8174 18.2363C61.6582 18.2363 62.2842 17.8753 62.6943 17.1543C63.0839 16.4133 63.2891 15.6121 63.3096 14.751V14.3906C63.2686 13.5494 63.043 12.7679 62.6328 12.0469C62.2227 11.346 61.6582 10.9961 60.9404 10.9961H60.8174Z" fill="#184F78"></path>
  <path fill-rule="evenodd" clip-rule="evenodd" d="M206.355 5.91797C209.739 5.91797 211.842 6.48923 212.662 7.63086C213.462 8.77246 213.923 10.0443 214.046 11.4463V11.5664C214.066 11.6065 214.077 11.6567 214.077 11.7168V20.0684C214.077 20.4689 214.139 20.8299 214.262 21.1504C214.405 21.4908 214.651 21.7812 215 22.0215V22.4717H208.232L207.986 20.79C207.597 21.3708 206.95 21.8314 206.048 22.1719C205.146 22.5323 204.192 22.7529 203.188 22.833C203.044 22.833 202.9 22.8423 202.757 22.8623C202.613 22.8823 202.459 22.8926 202.295 22.8926H201.957C201.014 22.8325 200.101 22.6325 199.219 22.292C198.357 21.9515 197.701 21.3802 197.25 20.5791C197.209 20.499 197.168 20.4086 197.127 20.3086C197.086 20.2085 197.024 20.0883 196.942 19.9482C196.86 19.668 196.778 19.3578 196.696 19.0176C196.594 18.6571 196.542 18.2961 196.542 17.9355C196.542 17.6752 196.563 17.4146 196.604 17.1543C196.665 16.8941 196.737 16.624 196.819 16.3438C196.901 16.1035 197.024 15.8428 197.188 15.5625C197.332 15.3023 197.506 15.0517 197.711 14.8115C198.203 14.2507 198.86 13.8302 199.681 13.5498C200.521 13.2695 201.383 13.0684 202.265 12.9482C202.593 12.8682 202.931 12.8086 203.279 12.7686C203.607 12.7285 203.926 12.6782 204.233 12.6182C204.705 12.5781 205.146 12.5176 205.556 12.4375C205.966 12.3574 206.314 12.2774 206.602 12.1973C206.807 12.1172 207.002 11.9971 207.187 11.8369C207.35 11.6768 207.453 11.5166 207.494 11.3564V11.2363C207.515 11.2163 207.524 11.1761 207.524 11.1162C207.524 11.0763 207.515 11.036 207.494 10.9961V10.9355C207.433 10.6953 207.268 10.4952 207.002 10.335C206.735 10.1547 206.366 10.0645 205.895 10.0645C205.32 10.0645 204.817 10.1547 204.387 10.335C203.956 10.4952 203.68 10.8758 203.557 11.4766L197.25 11.4463C197.599 9.6838 198.307 8.32171 199.373 7.36035C200.419 6.3992 202.747 5.91799 206.355 5.91797ZM207.524 15.5625C207.278 15.7226 207.012 15.853 206.725 15.9531C206.458 16.0332 206.181 16.1133 205.895 16.1934C205.813 16.1934 205.73 16.2036 205.648 16.2236C205.567 16.2436 205.484 16.2632 205.402 16.2832C204.808 16.4033 204.274 16.5737 203.803 16.7939C203.331 16.9942 203.095 17.3952 203.095 17.9961C203.095 18.3964 203.279 18.7168 203.648 18.957C204.018 19.1773 204.438 19.2871 204.91 19.2871H205.156C205.218 19.2672 205.3 19.2578 205.402 19.2578C205.628 19.2178 205.843 19.147 206.048 19.0469C206.273 18.9468 206.458 18.8369 206.602 18.7168C206.786 18.5166 206.95 18.3062 207.094 18.0859C207.217 17.8656 207.319 17.6451 207.401 17.4248C207.463 17.2447 207.504 17.0546 207.524 16.8545C207.565 16.6543 207.586 16.4737 207.586 16.3135V16.1934C207.586 16.1335 207.576 16.0934 207.556 16.0732V15.9531C207.556 15.873 207.545 15.8023 207.524 15.7422V15.5625Z" fill="#184F78"></path>
  <path d="M184.699 6.63965H187.591V10.5146H184.699V16.3135C184.699 16.8341 184.853 17.2548 185.16 17.5752C185.468 17.8957 186.032 18.0557 186.853 18.0557H187.037C187.119 18.0556 187.191 18.0454 187.252 18.0254H187.714V22.502C187.017 22.542 186.36 22.5718 185.745 22.5918C185.109 22.6118 184.524 22.6221 183.991 22.6221C182.104 22.6221 180.699 22.3523 179.776 21.8115C178.833 21.2708 178.361 20.1689 178.361 18.5068V10.5146H176.055V6.63965H178.607V1.8623H184.699V6.63965Z" fill="#184F78"></path>
  <path fill-rule="evenodd" clip-rule="evenodd" d="M23.8721 22.502H16.335L15.5967 19.6484H8.27539L7.47559 22.502H0L8.0293 0.480469H15.8428L23.8721 22.502ZM9.75195 15.1416H14.0889L11.9355 7.93164L9.75195 15.1416Z" fill="#184F78"></path>
  <path d="M35.3154 5.91797C36.1767 5.91797 36.9971 6.14877 37.7764 6.60938C38.5352 7.09006 39.1201 7.94134 39.5303 9.16309C40.043 8.28189 40.6992 7.59053 41.499 7.08984C42.2986 6.58931 43.1291 6.27937 43.9902 6.15918C44.1542 6.09913 44.3185 6.0684 44.4824 6.06836C44.667 6.04833 44.8418 6.03906 45.0059 6.03906C46.3798 6.0391 47.6202 6.5397 48.7275 7.54102C49.8145 8.54245 50.3584 10.1045 50.3584 12.2275V22.502H44.3291V13.3994C44.3291 12.7585 44.1445 12.2775 43.7754 11.957C43.3858 11.6366 42.955 11.4766 42.4834 11.4766C42.0118 11.4766 41.581 11.6367 41.1914 11.957C40.8018 12.2774 40.6065 12.768 40.6064 13.4287V22.502H34.4238V13.3994C34.4238 12.6784 34.2285 12.1471 33.8389 11.8066C33.4492 11.4462 33.0078 11.2656 32.5156 11.2656H32.4238C31.9932 11.2857 31.5928 11.4764 31.2236 11.8369C30.8547 12.2174 30.67 12.7481 30.6699 13.4287V22.502H24.6719V6.42871H30.1777V8.65234C30.5264 8.03149 31.1211 7.46018 31.9619 6.93945C32.8028 6.41871 33.6855 6.09869 34.6084 5.97852C34.7313 5.95851 34.8546 5.93797 34.9775 5.91797H35.3154Z" fill="#184F78"></path>
  <path d="M130.956 11.957L130.741 8.38184V0.450195H137.755V22.502H130.956L123.481 10.7549L123.728 14.3301V22.502H116.929V0.450195H123.481L130.956 11.957Z" fill="#184F78"></path>
  <path d="M195.373 22.4717H189.036V12.167L195.373 8.5625V22.4717Z" fill="#184F78"></path>
  <path d="M195.404 4.2959V8.5625L189.067 4.9873V0.691406L195.404 4.2959Z" fill="#184F78"></path>
  <path d="M96.5332 4.50684H89.8574V0H96.5332V4.50684Z" fill="#184F78"></path>
</svg>
