<svg version="1.2" xmlns="http://www.w3.org/2000/svg" viewBox="0 0 307 48" width="307" height="48">
	<title>New Project</title>
	<style>
		.s0 { fill: #bc5b28 } 
	</style>
	<g id="Layer 1">
		<g id="&lt;Group&gt;">
			<g id="&lt;Group&gt;">
				<path id="&lt;Compound Path&gt;" fill-rule="evenodd" class="s0" d="m0.31 1.44h15.85c8.73 0 15.87 6.86 15.87 15.26 0 8.37-7.14 15.21-15.87 15.21h-6.78v14.67h-9.07zm22.65 15.18c0-3.42-3.05-6.19-6.8-6.19h-6.78v12.49l6.78 0.02c3.75 0.03 6.8-2.82 6.8-6.32z"/>
				<path id="&lt;Compound Path&gt;" fill-rule="evenodd" class="s0" d="m67.47 46.58l-14.36-21.34v21.34h-9.07l-0.03-45.14h14.73c8.42 0 15.34 6.5 15.34 14.62 0 5.79-3.5 10.86-8.34 12.57l12.82 17.95zm-14.39-24.81l5.82 0.03c3.08 0.03 5.83-2.47 5.83-5.69 0-3.22-2.78-5.68-5.83-5.68h-5.82z"/>
				<path id="&lt;Compound Path&gt;" fill-rule="evenodd" class="s0" d="m98.82 1.44v45.14h-9.07v-45.14z"/>
				<path id="&lt;Compound Path&gt;" class="s0" d="m157.76 0.32v46.26h-9.08v-19.66l-12.99 18.9h-0.05l-13.02-18.9v19.66h-9.08v-46.26h0.51l21.61 29.82 21.59-29.82z"/>
				<path id="&lt;Compound Path&gt;" fill-rule="evenodd" class="s0" d="m247.42 46.58l-14.36-21.34v21.34h-9.07l-0.03-45.14h14.73c8.43 0 15.34 6.5 15.34 14.62 0 5.79-3.5 10.86-8.34 12.57l12.82 17.95zm-14.39-24.81l5.82 0.03c3.08 0.03 5.83-2.47 5.83-5.69 0-3.22-2.77-5.68-5.83-5.68h-5.82z"/>
				<path id="&lt;Compound Path&gt;" class="s0" d="m267.74 24.04c0-12.74 10.73-23.52 23.44-23.52 5.88 0.08 11.09 2.41 15.82 6.97l-5.24 7.14c-3.08-3.02-6.77-4.87-10.66-4.87-7.26 0-14.17 6.44-14.17 14.33 0 8.04 7.17 14.26 14.14 14.26 4.14 0 7.73-2.22 10.72-5.16l5.21 7.34c-3.98 3.95-8.82 6.92-15.65 6.92-13.02 0-23.61-10.73-23.61-23.41z"/>
				<path id="&lt;Path&gt;" class="s0" d="m190.98 0.32h-0.28l-21.56 46.26h17.85v-7.74h-4.5l8.38-18.36 8.36 18.36h-4.51v7.74h17.85z"/>
			</g>
		</g>
	</g>
</svg>