<?xml version="1.0" encoding="UTF-8"?>
<svg id="Layer_1" xmlns="http://www.w3.org/2000/svg" version="1.1" viewBox="0 0 121.66 48.55">
  <!-- Generator: Adobe Illustrator 29.5.1, SVG Export Plug-In . SVG Version: 2.1.0 Build 141)  -->
  <defs>
    <style>
      .st0 {
        fill: #231f20;
      }

      .st1 {
        fill: #00abda;
      }

      .st2 {
        fill: #f6861f;
      }
    </style>
  </defs>
  <g>
    <rect class="st0" x="56.91" y="35.77" width=".71" height="4.06"/>
    <path class="st0" d="M59.65,36.94c-.37,0-.67.12-.89.37-.22.24-.33.57-.33.98v1.54h.66v-1.63c0-.18.05-.33.16-.44.11-.11.24-.17.4-.17s.3.06.4.17c.11.11.16.26.16.44v1.63h.66v-1.54c0-.41-.11-.74-.33-.98-.22-.24-.52-.37-.89-.37Z"/>
    <path class="st0" d="M62.65,37.05c-.15.04-.3.11-.44.2-.2.14-.35.31-.46.5-.11.2-.16.42-.16.65,0,.43.15.78.46,1.04.3.26.7.39,1.19.39h.33v-.64h-.3c-.31,0-.55-.08-.74-.22-.18-.14-.26-.32-.26-.56s.09-.42.26-.56c.18-.14.43-.22.74-.22h.3v-.64h-.33c-.23,0-.43.02-.58.06Z"/>
    <path class="st0" d="M64.74,37.05c-.07.03-.14.08-.2.14v-.2h-.63v2.84h.67v-1.35c0-.33.06-.55.19-.69.12-.14.34-.2.64-.2h.17v-.65h-.22c-.26,0-.46.04-.62.11Z"/>
    <path class="st0" d="M68.08,38.48c-.03.24-.12.43-.26.56-.14.13-.3.19-.5.19-.21,0-.38-.07-.53-.23-.1-.11-.17-.24-.2-.39l.2.35,1.9-1.05-.04-.08c-.14-.28-.32-.5-.55-.66-.23-.15-.49-.23-.77-.23-.19,0-.38.04-.55.11-.17.07-.33.18-.47.32-.14.14-.24.3-.31.48-.07.18-.11.36-.11.56,0,.27.06.51.19.73.13.23.3.4.53.54.11.06.23.12.35.15.12.03.25.05.37.05.37,0,.68-.12.94-.35.26-.23.42-.55.49-.95l.02-.1-.67-.1-.02.1ZM66.58,38.38c0-.23.07-.42.22-.58.14-.16.32-.23.53-.23.11,0,.2.02.28.06.05.02.1.05.15.09l-1.18.66Z"/>
    <path class="st0" d="M72.2,37.71c-.12-.24-.3-.43-.52-.57-.23-.14-.48-.21-.75-.21-.41,0-.76.14-1.02.42-.27.27-.4.63-.4,1.05,0,.26.06.49.16.7.11.21.27.39.47.53.11.08.23.14.36.18.13.04.27.06.4.06s.27-.02.4-.05c.13-.03.25-.08.37-.15h.02s0,.15,0,.15h.67v-1.21c0-.25-.01-.43-.04-.55-.02-.13-.06-.25-.12-.36ZM71.69,38.92l-.12.09c-.1.08-.2.13-.3.17-.1.04-.2.05-.31.05-.23,0-.41-.08-.56-.23-.15-.16-.22-.36-.22-.61s.07-.44.21-.59c.14-.15.32-.22.54-.22s.4.07.54.22c.14.16.21.35.21.61v.51Z"/>
    <path class="st0" d="M74.36,38.13l-.48-.19c-.09-.04-.16-.07-.19-.11-.03-.03-.04-.06-.04-.08,0-.05.02-.08.04-.09.03-.03.08-.04.15-.04h1.2v-.63h-1.08c-.31,0-.55.07-.72.19-.18.14-.27.33-.27.57,0,.2.06.37.17.5.11.12.31.24.59.36l.45.18c.16.07.22.11.25.13.03.03.05.06.05.1,0,.05-.02.08-.06.11-.05.03-.12.05-.22.05h-1.24v.65h.99c.4,0,.69-.06.89-.2.21-.14.32-.34.32-.62,0-.2-.06-.37-.18-.5-.11-.12-.32-.25-.63-.38Z"/>
    <rect class="st0" x="75.99" y="36.99" width=".67" height="2.84"/>
    <path class="st0" d="M76.05,36.06c-.07.07-.11.16-.11.27s.04.2.11.27c.07.08.17.11.27.11s.2-.04.27-.11c.07-.07.11-.16.11-.27s-.04-.2-.11-.27c-.14-.15-.39-.15-.55,0Z"/>
    <path class="st0" d="M79.01,36.94c-.37,0-.67.12-.89.37-.22.24-.33.57-.33.98v1.54h.66v-1.63c0-.18.05-.33.16-.44.11-.11.24-.17.4-.17s.3.06.4.17c.1.11.16.26.16.44v1.63h.66v-1.54c0-.41-.11-.74-.33-.98-.22-.24-.52-.37-.89-.37Z"/>
    <path class="st0" d="M83.57,37.71c-.12-.24-.3-.43-.52-.57-.22-.14-.48-.21-.74-.21-.41,0-.76.14-1.02.42-.27.27-.4.63-.4,1.05,0,.26.05.49.16.7.11.21.27.39.47.53.11.08.23.14.36.18.27.08.55.08.8.02.13-.03.25-.08.37-.15h.02c0,.22-.08.4-.2.53-.19.19-.46.26-.88.17-.12-.02-.25-.06-.41-.11l-.1-.03-.14.64.08.03c.16.05.31.09.45.12.14.02.28.04.42.04.44,0,.8-.14,1.06-.4.26-.26.39-.63.39-1.08v-.96c0-.25-.01-.43-.04-.55-.03-.13-.06-.25-.12-.36ZM82.94,39.01c-.1.08-.2.13-.3.17-.1.04-.2.05-.3.05-.23,0-.41-.08-.56-.23-.15-.16-.22-.36-.22-.61s.07-.44.21-.59c.14-.15.32-.22.54-.22s.4.07.54.22c.14.16.21.35.21.61v.5l-.12.09Z"/>
  </g>
  <g>
    <polygon class="st1" points="88.49 37.37 87.02 37.37 87.02 35.77 86.32 35.77 86.32 39.83 87.02 39.83 87.02 38.06 88.49 38.06 88.49 39.83 89.2 39.83 89.2 35.77 88.49 35.77 88.49 37.37"/>
    <path class="st1" d="M92.63,37.71c-.12-.24-.3-.43-.52-.57-.23-.14-.48-.21-.75-.21-.41,0-.75.14-1.02.42-.27.27-.4.63-.4,1.05,0,.26.05.49.16.7.11.21.27.39.47.53.11.08.23.14.37.18.13.04.27.06.4.06s.27-.02.4-.05c.13-.03.25-.08.37-.15h.02s0,.15,0,.15h.67v-1.21c0-.25-.01-.43-.03-.55-.02-.13-.06-.25-.12-.36ZM92.12,38.92l-.12.09c-.1.08-.2.13-.3.17-.1.04-.2.05-.3.05-.23,0-.41-.08-.56-.23-.15-.16-.22-.36-.22-.61s.07-.44.21-.59c.14-.15.32-.22.54-.22s.4.07.54.22c.14.16.21.35.21.61v.51Z"/>
    <path class="st1" d="M94.7,36.94c-.27,0-.53.07-.75.2-.23.14-.4.33-.52.57-.06.11-.1.23-.12.37-.02.13-.04.31-.04.54v2.39h.67v-1.34h.02c.11.08.24.12.37.16.31.08.65.06.96-.07.18-.08.33-.19.46-.33.12-.14.22-.29.28-.47.07-.17.1-.36.1-.55,0-.42-.14-.77-.4-1.05-.27-.28-.61-.42-1.02-.42ZM93.94,38.92v-.5c0-.26.07-.46.21-.61.14-.15.31-.22.54-.22s.4.07.55.22c.14.15.21.35.21.59s-.07.45-.22.61c-.14.16-.33.23-.55.23-.1,0-.21-.02-.31-.05-.1-.04-.2-.09-.3-.17l-.12-.09Z"/>
    <path class="st1" d="M98.06,36.94c-.27,0-.53.07-.76.2-.23.14-.4.33-.52.57-.05.11-.09.24-.12.37-.03.13-.04.31-.04.54v2.39h.67v-1.34h.02c.11.07.24.12.37.16.3.08.65.06.96-.07.18-.08.33-.19.46-.33.13-.14.22-.29.29-.47.06-.17.1-.36.1-.55,0-.42-.13-.77-.4-1.05-.27-.28-.61-.42-1.02-.42ZM97.3,38.92v-.5c0-.26.07-.46.21-.61.14-.15.32-.22.54-.22s.4.07.55.22c.14.15.21.35.21.59s-.07.45-.22.61c-.15.16-.33.23-.56.23-.1,0-.2-.02-.31-.05-.1-.04-.2-.09-.3-.17l-.12-.1Z"/>
    <rect class="st1" x="100.19" y="36.99" width=".66" height="2.84"/>
    <path class="st1" d="M100.25,36.06c-.07.07-.11.16-.11.27s.04.2.11.27c.07.08.17.11.27.11s.2-.04.27-.11c.07-.08.11-.17.11-.27s-.04-.19-.11-.27c-.15-.15-.4-.15-.55,0Z"/>
    <path class="st1" d="M103.05,36.94c-.37,0-.67.12-.89.37-.22.24-.33.57-.33.98v1.54h.66v-1.63c0-.18.06-.33.16-.44.11-.11.24-.17.4-.17s.3.06.4.17c.11.11.16.26.16.44v1.63h.66v-1.54c0-.41-.11-.73-.33-.98-.22-.24-.52-.37-.89-.37Z"/>
    <path class="st1" d="M106.96,38.48c-.04.24-.12.43-.26.56-.13.13-.3.19-.5.19s-.38-.07-.53-.23c-.11-.11-.17-.25-.2-.4l.2.35,1.9-1.05-.04-.08c-.14-.29-.32-.5-.55-.65-.23-.15-.49-.23-.77-.23-.19,0-.38.04-.55.11-.17.07-.33.18-.47.32-.14.14-.24.3-.31.48-.07.18-.11.36-.11.56,0,.27.06.51.19.73.13.22.31.4.53.54.11.06.23.12.35.15.12.03.25.05.37.05.37,0,.68-.12.94-.35.25-.24.42-.55.49-.95l.02-.1-.67-.1v.1ZM105.46,38.38h0c0-.23.08-.42.22-.57.14-.16.32-.23.53-.23.11,0,.2.02.28.06.05.02.1.05.15.09l-1.17.66Z"/>
    <path class="st1" d="M109.54,38.13l-.48-.19c-.09-.04-.16-.08-.19-.11-.03-.03-.04-.06-.04-.08,0-.05.02-.08.04-.09.03-.03.09-.04.15-.04h1.2v-.63h-1.08c-.3,0-.54.06-.72.19-.18.14-.27.33-.27.57,0,.2.06.37.18.5.11.12.31.24.59.36l.45.18c.16.07.22.11.25.13.03.03.05.06.05.1,0,.05-.02.08-.06.11-.05.03-.12.05-.22.05h-1.24v.65h.99c.4,0,.69-.06.89-.2.21-.14.32-.34.32-.62,0-.2-.06-.37-.18-.5-.11-.12-.32-.25-.63-.38Z"/>
    <path class="st1" d="M112.78,38.51c-.11-.12-.32-.25-.63-.38l-.48-.19c-.09-.04-.16-.08-.2-.11-.03-.03-.04-.06-.04-.08,0-.05.02-.08.04-.09.03-.03.08-.04.15-.04h1.2v-.63h-1.07c-.31,0-.55.07-.72.19-.18.14-.27.33-.27.57,0,.2.06.37.18.5.11.12.3.24.59.36l.45.18c.16.07.22.11.25.13.03.03.05.06.05.1,0,.05-.02.08-.06.11-.05.03-.12.05-.22.05h-1.24v.65h.99c.4,0,.69-.06.89-.2.21-.14.32-.34.32-.62,0-.2-.06-.37-.18-.5Z"/>
  </g>
  <polygon class="st1" points="16.16 33.88 16.16 11.62 11.91 9.57 11.91 3.81 4.83 3.81 4.83 16.03 1.23 18.37 1.23 34.53 1.56 34.53 1.56 18.55 4.97 16.33 4.97 34.53 6.94 34.53 6.94 17.98 5.16 15.94 5.16 4.13 11.58 4.13 11.58 9.34 9.82 11.07 9.82 34.53 11.76 34.53 11.76 9.86 15.83 11.83 15.83 34.53 113.1 34.53 113.1 33.88 16.16 33.88"/>
  <path class="st2" d="M17.75,6.84c0,1.29-1.04,2.33-2.33,2.33s-2.34-1.04-2.34-2.33,1.05-2.33,2.34-2.33,2.33,1.04,2.33,2.33"/>
  <g>
    <path class="st0" d="M22.95,14.93c-1.75,0-3.01.7-3.76,1.75-.38.53-.62,1.02-.71,1.49-.09.47-.14.85-.14,1.17s.03.62.09.94c.37,1.87,1.89,3.45,4.54,3.49,2.52,0,2.78,2.15,2.78,4.25v.18c-.03,1.48-.31,2.57-.86,3.31-.55.73-1.18,1.1-1.89,1.1h-.03c-.47,0-.9-.15-1.32-.47-.86-.65-1.46-1.96-1.46-3.99v-.66h-1.86v.66c0,3.2,2.34,4.87,4.66,4.9h.08c.76,0,1.48-.17,2.15-.51,1.41-.72,2.38-2.17,2.39-4.4-.03-2.4-1.6-4.79-4.64-4.8-1.85.03-2.73-1.83-2.77-3.71v-.18c0-.46.05-.91.14-1.35.33-1.5,1.2-2.71,2.65-2.71,2.52,0,2.76,2.09,2.76,4.44v.25h1.86v-.25c.03-2.7-2.1-4.91-4.65-4.88Z"/>
    <polygon class="st0" points="31.02 24.24 37.2 14.98 34.96 14.98 30.03 22.39 30.03 14.98 28.17 14.98 28.17 33.06 30.03 33.06 30.03 25.73 30.51 25 36.92 33.06 37.47 33.06 30.78 24.59 31.02 24.24"/>
    <polygon class="st0" points="45.38 14.95 42.42 22.43 39.46 14.95 37.55 14.95 40.9 23.31 40.9 33.06 42.76 33.06 42.76 22.75 45.86 14.95 45.38 14.95"/>
    <path class="st0" d="M50.37,14.93c-1.75,0-3.01.7-3.76,1.75-.38.53-.62,1.02-.71,1.49-.09.47-.15.85-.15,1.17s.03.62.09.94c.37,1.87,1.89,3.45,4.54,3.49,2.52,0,2.78,2.15,2.78,4.25v.18c-.03,1.48-.31,2.57-.86,3.31-.55.73-1.18,1.1-1.89,1.1h-.03c-.47,0-.9-.15-1.32-.47-.86-.65-1.46-1.96-1.46-3.99v-.66h-1.86v.66c0,3.2,2.34,4.87,4.66,4.9h.08c.76,0,1.48-.17,2.15-.51,1.41-.72,2.38-2.17,2.39-4.4-.03-2.4-1.6-4.79-4.64-4.8-1.85.03-2.73-1.83-2.77-3.71v-.18c0-.46.05-.91.15-1.35.33-1.5,1.2-2.71,2.65-2.71,2.52,0,2.76,2.09,2.76,4.44v.25h1.86v-.25c.03-2.7-2.1-4.91-4.65-4.88Z"/>
    <path class="st0" d="M60.31,14.93c-2.44-.03-4.78,2.34-4.73,5.16v8.3c-.04,2.83,2.31,4.71,4.75,4.69,2.47.02,4.55-1.83,4.52-4.69h-1.86c0,2.33-.31,4.24-2.65,4.24s-2.91-1.96-2.91-4.24v-8.3c0-2.42.51-4.68,2.91-4.68s2.65,2.19,2.65,4.68v.43h1.86v-.43c.03-2.86-2.07-5.19-4.54-5.16Z"/>
    <polygon class="st0" points="97.95 23.79 101.24 23.79 101.24 23.32 97.95 23.32 97.95 15.43 103.31 15.43 103.31 14.96 96.56 14.97 96.09 14.97 96.09 33.06 96.56 33.06 96.56 33.08 103.32 33.06 103.32 32.6 97.95 32.61 97.95 23.79"/>
    <path class="st0" d="M113.25,19.85c.01-.09.01-.19.01-.28,0-.84-.23-1.58-.69-2.24-.51-.74-1.2-1.3-2.07-1.71-.86-.43-1.79-.64-2.79-.65h-2.74s0,0,0,0h-1.04v18.09h1.86v-9.13l6.8,9.13h.62l-6.96-9.28h1.42c2.66,0,5.37-1.3,5.58-3.93ZM105.79,23.33v-7.94h1.88c1.58,0,2.55.53,3.09,1.39.55.83.65,1.81.65,2.6,0,.19,0,.37-.02.57-.11,2.19-1.25,3.38-3.72,3.38h-1.88Z"/>
    <path class="st0" d="M92.69,15.61c-.86-.43-1.79-.64-2.79-.65h-2.73s0,0,0,0h-1.04v18.1h1.85v-9.29h1.88c2.64,0,5.39-1.3,5.57-3.93,0-.1,0-.21,0-.3,0-.83-.23-1.57-.69-2.22-.51-.73-1.2-1.3-2.07-1.71ZM93.59,19.95c-.12,2.19-1.25,3.38-3.72,3.38h-1.88v-7.94h1.87c1.58,0,2.56.53,3.1,1.39.55.84.64,1.82.64,2.68,0,.16,0,.33-.01.5Z"/>
    <path class="st0" d="M69.19,23.78c2.65,0,5.37-1.3,5.58-3.93.01-.09.01-.19.01-.28,0-.84-.23-1.58-.69-2.24-.51-.74-1.2-1.3-2.07-1.71-.86-.43-1.79-.64-2.79-.65h-2.74s0,0,0,0h-1.04v18.09h1.86v-9.13l6.8,9.13h.62l-6.95-9.28h1.42ZM67.3,15.4h1.88c1.58,0,2.55.53,3.09,1.39.55.83.65,1.81.65,2.6,0,.19,0,.37-.02.57-.11,2.19-1.25,3.38-3.72,3.38h-1.88v-7.94Z"/>
    <path class="st0" d="M79.52,14.95v.02l-4.79,18.09h.49l2.45-9.28h4l2.26,9.28h1.91l-4.4-18.1h-1.93ZM77.79,23.32l1.95-7.42,1.81,7.42h-3.76Z"/>
  </g>
</svg>